PathFileType	4	(X/Y/Z)	D:\MotionData\Pi-Spi Study\20230118_AMCsubject1\Trimmed_right_abd_001_rotated.trc
DataRate	CameraRate	NumFrames	NumMarkers	Units	OrigDataRate	OrigDataStartFrame	OrigNumFrames
200.00	200.00	       9	35	mm	200.00	34	       271
Frame#	Time	C7			Sternum			r_AMC1			r_AMC2			r_AMC3			l_AMC1			l_AMC2			l_AMC3			PX			T8			r_humerous			r_elbow_medial			r_elbow_lateral			r_forearm			r_wrist_radius			r_wrist_ulna			r_MCP_1			r_MCP_3			l_humerous			l_elbow_medial			l_elbow_lateral			l_forearm			l_wrist_radius			l_wrist_ulna			l_MCP_1			l_MCP_3			r_ASIS			r_PSIS			l_ASIS			l_PSIS			r_IC			l_IC			TS			AI			AA			
		X1	Y1	Z1	X2	Y2	Z2	X3	Y3	Z3	X4	Y4	Z4	X5	Y5	Z5	X6	Y6	Z6	X7	Y7	Z7	X8	Y8	Z8	X9	Y9	Z9	X10	Y10	Z10	X11	Y11	Z11	X12	Y12	Z12	X13	Y13	Z13	X14	Y14	Z14	X15	Y15	Z15	X16	Y16	Z16	X17	Y17	Z17	X18	Y18	Z18	X19	Y19	Z19	X20	Y20	Z20	X21	Y21	Z21	X22	Y22	Z22	X23	Y23	Z23	X24	Y24	Z24	X25	Y25	Z25	X26	Y26	Z26	X27	Y27	Z27	X28	Y28	Z28	X29	Y29	Z29	X30	Y30	Z30	X31	Y31	Z31	X32	Y32	Z32	X33	Y33	Z33	X34	Y34	Z34	X35	Y35	Z35	

34	0.165	200.4082	1376.712	-210.5322	325.8245	1300.8361	-199.4738	198.2963	1322.1028	-43.8759	235.1032	1318.0142	-10.6441	258.5833	1350.52	-31.2333	226.3138	1326.814	-375.2643	267.4226	1317.447	-405.5754	291.1574	1350.858	-372.2832	377.8464	1110.6669	-193.6544	147.2729	1193.3885	-221.8187	293.4093	1125.1218	-7.5775	207.9556	992.0413	-26.1584	235.056	998.0661	33.2876	281.389	839.59	41.8942	326.1563	777.2412	18.0836	278.3786	770.4503	36.8027	338.0128	677.5764	31.2796	296.5155	690.2904	42.6799	319.9862	1115.5341	-389.8973	220.2744	1000.225	-407.2553	258.8539	993.0211	-447.2458	308.5945	840.9833	-441.0261	338.0387	770.082	-408.1703	301.3095	765.837	-435.2143	352.5457	692.993	-417.7003	309.3131	690.9428	-441.1293	362.3977	907.8598	-67.6216	174.2134	922.4352	-159.0532	371.5459	895.4729	-329.9349	178.7301	916.6269	-262.6818	273.5076	966.7782	-42.2707	281.7825	940.5701	-368.9817	110.1721	1305.1293	-95.753	101.9254	1203.7333	-88.7065	186.6627	1300.8931	27.3233
35	0.17	200.4554	1376.7162	-210.5063	325.8811	1300.8314	-199.46	198.3587	1322.1108	-43.8514	235.1583	1318.0478	-10.6468	258.632	1350.5419	-31.2184	226.3649	1326.8231	-375.2477	267.4684	1317.4552	-405.5713	291.2761	1350.8091	-372.2444	377.7995	1110.7059	-193.6826	147.2887	1193.4012	-221.7956	293.4901	1125.0806	-7.6037	207.9843	992.0603	-26.1346	235.1218	998.0714	33.2965	281.4385	839.5186	41.9252	326.1508	777.2279	18.1252	278.3948	770.4636	36.8055	338.0487	677.5742	31.2592	296.5191	690.2612	42.7212	319.9658	1115.5955	-389.8804	219.8601	998.8752	-407.2794	258.8478	993.0603	-447.2384	308.6428	840.9501	-440.9849	338.0353	770.0806	-408.174	301.316	765.8962	-435.2364	352.9006	693.0425	-417.672	309.2572	690.9421	-441.0703	362.3906	907.9071	-67.5721	174.2404	922.4396	-159.0309	371.5579	895.4918	-329.9023	178.7381	916.6806	-262.6652	273.5552	966.7514	-42.293	281.6806	940.5824	-368.9643	110.2139	1305.1772	-95.7152	101.9278	1203.769	-88.6605	186.8275	1301.0077	27.5206
36	0.175	200.4928	1376.7416	-210.4617	325.9622	1300.8502	-199.4428	198.4189	1322.1276	-43.8244	235.2302	1318.0387	-10.6099	258.7315	1350.5041	-31.1999	226.4363	1326.7861	-375.2116	267.4614	1317.4824	-405.516	291.2911	1350.8632	-372.3078	377.9125	1110.7107	-193.6626	147.3309	1193.4111	-221.7863	293.5371	1125.0577	-7.5457	208.0181	992.0426	-26.1211	235.1514	998.0454	33.3076	281.5039	839.4745	41.9148	326.1538	777.2317	18.1228	278.3699	770.4628	36.8482	338.0525	677.5555	31.2465	296.5776	690.2255	42.7297	320.0341	1115.5772	-389.8593	219.9915	999.2383	-407.2663	258.8651	993.0608	-447.2249	308.6376	840.9489	-441.0024	338.0772	770.0316	-408.2025	301.3094	765.8554	-435.2296	352.4724	693.097	-417.7285	309.2405	690.9708	-441.0877	362.4698	907.8541	-67.5743	174.2645	922.446	-159.029	371.5268	895.4712	-329.9081	178.7409	916.6619	-262.6443	273.6198	966.7141	-42.2773	281.8012	940.6615	-368.937	110.3034	1304.6263	-96.1652	101.9539	1203.8765	-88.5767	186.9374	1301.0452	27.5248
37	0.18	200.5491	1376.7517	-210.4411	325.9787	1300.8395	-199.4199	198.4858	1322.1389	-43.7849	235.3182	1318.068	-10.582	258.7691	1350.52	-31.1825	226.4113	1326.8669	-375.1895	267.5063	1317.4895	-405.5477	291.2769	1350.8776	-372.1993	377.9108	1110.7148	-193.6597	147.3638	1193.4434	-221.7541	293.5555	1125.0971	-7.525	208.061	992.0841	-26.0708	235.2006	998.0709	33.3364	281.5562	839.4623	41.9049	326.1953	777.2275	18.1035	278.4181	770.4539	36.851	338.0822	677.5569	31.26	296.5813	690.2425	42.7288	320.0667	1115.5798	-389.8511	219.9943	999.2538	-407.2461	258.8652	993.0853	-447.2142	308.6425	840.9674	-440.9905	338.0559	770.0649	-408.1589	301.3119	765.9356	-435.25	352.4521	693.1309	-417.6841	309.1865	691.032	-441.0578	362.4543	907.8686	-67.5372	174.2502	922.4485	-159.006	371.5693	895.4827	-329.8978	178.7611	916.6522	-262.6345	273.6174	966.728	-42.2242	281.8864	940.6779	-368.9649	110.3285	1304.6752	-96.131	102.0072	1203.907	-88.6204	186.9676	1301.064	27.6077
38	0.185	200.5744	1376.7594	-210.4114	326.0254	1300.8342	-199.4052	198.5499	1322.1459	-43.7423	235.3611	1318.0774	-10.5496	258.6236	1350.3962	-31.4107	226.4903	1326.8177	-375.1334	267.438	1317.6325	-405.487	291.3052	1350.9033	-372.195	377.9476	1110.6643	-193.6487	147.3795	1193.4542	-221.7248	293.6079	1125.1381	-7.5235	208.104	992.0559	-26.0718	235.2578	998.0476	33.3498	281.571	839.476	41.9192	326.1829	777.2335	18.1509	278.4966	770.4398	36.8448	338.0752	677.5405	31.2679	296.6445	690.1943	42.7351	320.0899	1115.6123	-389.8326	220.0115	999.2767	-407.2153	258.9149	993.1182	-447.1891	308.6415	840.991	-441.0067	338.0783	770.0925	-408.1861	301.289	765.9275	-435.2382	352.4396	693.0981	-417.676	309.1993	691.0825	-441.0979	362.4826	907.8926	-67.5434	174.2638	922.4527	-159.0062	371.5826	895.4478	-329.8761	178.7691	916.6567	-262.6389	273.6704	966.7015	-42.2556	281.8715	940.6301	-368.9497	110.3751	1304.7017	-96.0901	101.9986	1203.9126	-88.5758	186.9478	1300.9376	27.456
39	0.19	200.611	1376.7555	-210.3623	326.0866	1300.8488	-199.3954	198.6026	1322.1495	-43.7143	235.4384	1318.0845	-10.5483	258.7109	1350.3558	-31.3797	226.5272	1326.8448	-375.1036	267.45	1317.658	-405.4136	291.3107	1350.9205	-372.1899	377.9609	1110.7288	-193.6887	147.3842	1193.4692	-221.7029	293.6668	1125.1335	-7.5107	208.1221	992.0532	-26.0346	235.3054	998.0449	33.3825	281.6506	839.4918	41.9339	326.2292	777.2341	18.1304	278.5099	770.433	36.8839	338.1171	677.5333	31.2758	296.5665	690.2838	42.7798	320.1014	1115.6177	-389.7952	219.9889	999.2612	-407.1974	259.0755	993.3619	-447.1644	308.5994	841.0621	-441.0066	338.0717	770.0903	-408.1608	301.3355	765.9135	-435.2237	352.4715	693.1022	-417.6824	309.2374	691.0242	-441.1135	362.465	907.8829	-67.5341	174.2942	922.445	-158.9871	371.57	895.4529	-329.8642	178.7779	916.6767	-262.6356	273.6388	966.7559	-42.2302	282.0093	940.595	-368.9467	110.4197	1304.7417	-96.0717	101.9931	1203.9413	-88.5399	187.025	1300.9453	27.4522
40	0.195	200.6729	1376.7834	-210.3418	326.128	1300.8533	-199.3983	198.6594	1322.1552	-43.6855	235.5383	1318.0433	-10.5063	258.7351	1350.4196	-31.3334	226.5665	1326.8742	-375.0846	267.4835	1317.6613	-405.3742	291.3768	1350.9454	-372.1942	377.8847	1110.678	-193.6252	147.4096	1193.4922	-221.667	293.6989	1125.0941	-7.4813	208.1694	992.0501	-26.0112	235.3368	998.0363	33.3856	281.6813	839.4697	41.9502	326.2067	777.2205	18.2017	278.5208	770.4491	36.8895	338.1101	677.5202	31.2938	296.5666	690.3044	42.7942	320.135	1115.6256	-389.8187	220.0076	999.3164	-407.2085	258.9276	993.1464	-447.1399	308.5968	841.076	-440.9731	338.0811	770.1111	-408.1437	301.3112	765.9408	-435.1989	352.555	693.0194	-417.6762	309.1814	691.0716	-441.0449	362.5067	907.8865	-67.5324	174.3058	922.4462	-158.982	371.5956	895.4543	-329.8243	178.8049	916.6966	-262.6231	273.6763	966.777	-42.2515	281.9346	940.7115	-368.9385	110.4657	1304.7703	-96.0615	102.0386	1203.9902	-88.5148	187.0622	1300.9495	27.4838
41	0.2	200.6978	1376.7933	-210.3236	326.1721	1300.8418	-199.3413	198.7093	1322.1522	-43.649	235.5549	1318.1248	-10.4646	259.0512	1350.5098	-31.0647	226.5733	1326.8812	-375.0666	267.5506	1317.6681	-405.3898	291.4122	1350.9666	-372.2095	377.9215	1110.7101	-193.6688	147.4321	1193.4959	-221.6483	293.7838	1125.0546	-7.4729	208.1994	992.0601	-25.9734	235.4122	998.0465	33.3845	281.7533	839.4589	41.9432	326.2578	777.2438	18.1164	278.5941	770.3794	36.899	338.144	677.4988	31.2976	296.6375	690.2349	42.7974	320.1651	1115.6331	-389.7613	220.0145	999.3287	-407.1883	258.9301	993.1559	-447.1425	308.6356	841.0364	-440.9186	338.0561	770.1278	-408.1199	301.2141	766.0797	-435.2051	352.4954	693.1344	-417.6632	309.2548	691.0183	-441.0466	362.5465	907.8973	-67.5023	174.3364	922.4541	-158.977	371.5751	895.4362	-329.8202	178.8207	916.6854	-262.6016	273.7028	966.7526	-42.2258	281.8303	940.71	-368.875	110.5117	1304.7924	-96.0413	102.0617	1204.027	-88.496	187.2003	1301.1036	27.7103
42	0.205	200.7398	1376.7958	-210.289	326.2463	1300.8404	-199.3472	198.783	1322.1459	-43.6171	235.6735	1318.0491	-10.4456	258.9818	1350.2771	-31.2791	226.5588	1326.9702	-375.0635	267.5651	1317.6403	-405.3655	291.3965	1351.001	-372.1034	377.9222	1110.7001	-193.6202	147.4387	1193.5349	-221.6121	293.8353	1125.0776	-7.4819	208.2403	992.059	-25.9481	235.447	998.0526	33.425	281.7016	839.513	41.9772	326.248	777.2286	18.1893	278.561	770.4418	36.9272	338.1706	677.5105	31.3042	296.6676	690.2158	42.8172	320.1559	1115.7462	-389.7963	220.0239	999.3445	-407.1874	258.9442	993.1874	-447.1267	308.6163	841.0865	-440.9485	338.1132	770.0866	-408.118	301.3165	766.0018	-435.1944	352.5315	693.0981	-417.6237	309.1525	691.1736	-441.0584	361.9488	907.5311	-67.528	174.3547	922.4496	-158.9624	371.6746	895.4382	-329.8281	178.8295	916.6924	-262.5831	273.7317	966.7805	-42.2038	281.9373	940.7772	-368.9007	110.553	1304.8175	-96.0265	102.074	1204.0892	-88.4417	187.1645	1301.0222	27.5555
